<svg xmlns="http://www.w3.org/2000/svg" xmlns:xlink="http://www.w3.org/1999/xlink" width="500" zoomAndPan="magnify" viewBox="0 0 375 374.999991" height="500" preserveAspectRatio="xMidYMid meet" version="1.0"><defs><clipPath id="a5dd798598"><path d="M 30 52 L 296 52 L 296 317 L 30 317 Z M 30 52 " clip-rule="nonzero"/></clipPath><clipPath id="342b7c15d9"><path d="M 238.054688 28.753906 L 318.664062 109.363281 L 82.136719 345.890625 L 1.527344 265.28125 Z M 238.054688 28.753906 " clip-rule="nonzero"/></clipPath><clipPath id="db83b61986"><path d="M 238.054688 28.753906 L 318.664062 109.363281 L 82.136719 345.890625 L 1.527344 265.28125 Z M 238.054688 28.753906 " clip-rule="nonzero"/></clipPath><clipPath id="bda65dfb70"><path d="M 79 52 L 345 52 L 345 317 L 79 317 Z M 79 52 " clip-rule="nonzero"/></clipPath><clipPath id="5aa2231e13"><path d="M 56.164062 109.527344 L 136.773438 28.917969 L 373.300781 265.445312 L 292.691406 346.054688 Z M 56.164062 109.527344 " clip-rule="nonzero"/></clipPath><clipPath id="3c1cfdbacf"><path d="M 56.164062 109.527344 L 136.773438 28.917969 L 373.300781 265.445312 L 292.691406 346.054688 Z M 56.164062 109.527344 " clip-rule="nonzero"/></clipPath></defs><g clip-path="url(#a5dd798598)"><g clip-path="url(#342b7c15d9)"><g clip-path="url(#db83b61986)"><path fill="#ffffff" d="M 261.652344 66.289062 L 281.105469 85.742188 L 275.1875 91.660156 C 271.175781 95.671875 260.480469 96.609375 255.632812 91.761719 C 250.785156 86.914062 251.722656 76.21875 255.734375 72.207031 Z M 139.582031 229.628906 L 140.382812 225.007812 C 140.941406 221.78125 142.488281 218.804688 144.804688 216.484375 L 257.136719 104.152344 C 264.878906 104.746094 278.300781 102.445312 284.179688 96.566406 L 295.011719 85.734375 L 261.664062 52.386719 L 250.832031 63.21875 C 244.953125 69.097656 241.257812 81.125 243.242188 90.257812 L 130.910156 202.589844 C 128.59375 204.910156 125.613281 206.453125 122.386719 207.011719 L 117.765625 207.8125 C 112.679688 208.699219 107.484375 207.054688 103.835938 203.40625 L 83.617188 183.1875 L 54.660156 212.148438 C 32.976562 233.832031 20.175781 283.90625 41.832031 305.5625 C 63.488281 327.21875 113.5625 314.417969 135.246094 292.734375 L 164.207031 263.777344 L 143.988281 243.558594 C 140.34375 239.910156 138.695312 234.714844 139.582031 229.628906 " fill-opacity="1" fill-rule="nonzero"/></g></g></g><g clip-path="url(#bda65dfb70)"><g clip-path="url(#5aa2231e13)"><g clip-path="url(#3c1cfdbacf)"><path fill="#ffffff" d="M 93.699219 85.929688 L 113.152344 66.476562 L 119.070312 72.394531 C 123.082031 76.40625 124.019531 87.101562 119.171875 91.949219 C 114.324219 96.796875 103.632812 95.859375 99.617188 91.847656 Z M 257.039062 208 L 252.417969 207.199219 C 249.191406 206.640625 246.214844 205.09375 243.898438 202.777344 L 131.566406 90.445312 C 132.160156 82.703125 129.855469 69.28125 123.976562 63.402344 L 113.144531 52.570312 L 79.796875 85.917969 L 90.628906 96.75 C 96.507812 102.628906 108.539062 106.324219 117.671875 104.339844 L 230.003906 216.671875 C 232.320312 218.988281 233.863281 221.96875 234.425781 225.195312 L 235.226562 229.816406 C 236.109375 234.902344 234.464844 240.097656 230.816406 243.746094 L 210.597656 263.964844 L 239.558594 292.921875 C 261.242188 314.605469 311.316406 327.40625 332.972656 305.75 C 354.632812 284.09375 341.832031 234.019531 320.148438 212.335938 L 291.1875 183.375 L 270.96875 203.59375 C 267.324219 207.238281 262.125 208.886719 257.039062 208 " fill-opacity="1" fill-rule="nonzero"/></g></g></g></svg>