<svg xmlns="http://www.w3.org/2000/svg" xmlns:xlink="http://www.w3.org/1999/xlink" width="500" zoomAndPan="magnify" viewBox="0 0 375 374.999991" height="500" preserveAspectRatio="xMidYMid meet" version="1.0"><defs><g/><clipPath id="9260da5bcc"><path d="M 112 122 L 240 122 L 240 250 L 112 250 Z M 112 122 " clip-rule="nonzero"/></clipPath><clipPath id="6e321cdc8f"><path d="M 211.652344 111.640625 L 250.367188 150.355469 L 137.40625 263.316406 L 98.695312 224.601562 Z M 211.652344 111.640625 " clip-rule="nonzero"/></clipPath><clipPath id="0009d059b7"><path d="M 211.652344 111.640625 L 250.367188 150.355469 L 137.40625 263.316406 L 98.695312 224.601562 Z M 211.652344 111.640625 " clip-rule="nonzero"/></clipPath><clipPath id="5e056b3d2c"><path d="M 136 122 L 263 122 L 263 250 L 136 250 Z M 136 122 " clip-rule="nonzero"/></clipPath><clipPath id="e5a4ee6a0d"><path d="M 124.746094 150.238281 L 163.457031 111.527344 L 276.417969 224.488281 L 237.703125 263.199219 Z M 124.746094 150.238281 " clip-rule="nonzero"/></clipPath><clipPath id="4d8cfe6569"><path d="M 124.746094 150.238281 L 163.457031 111.527344 L 276.417969 224.488281 L 237.703125 263.199219 Z M 124.746094 150.238281 " clip-rule="nonzero"/></clipPath></defs><g clip-path="url(#9260da5bcc)"><g clip-path="url(#6e321cdc8f)"><g clip-path="url(#0009d059b7)"><path fill="#ffffff" d="M 223.007812 129.648438 L 232.351562 138.992188 L 229.523438 141.816406 C 227.609375 143.734375 222.488281 144.167969 220.160156 141.839844 C 217.832031 139.511719 218.265625 134.390625 220.183594 132.476562 Z M 164.761719 207.714844 L 165.140625 205.503906 C 165.402344 203.957031 166.140625 202.535156 167.246094 201.425781 L 220.898438 147.777344 C 224.605469 148.070312 231.03125 146.988281 233.835938 144.179688 L 239.011719 139.003906 L 222.996094 122.988281 L 217.820312 128.164062 C 215.011719 130.972656 213.261719 136.726562 214.222656 141.105469 L 160.574219 194.753906 C 159.46875 195.859375 158.042969 196.597656 156.496094 196.859375 L 154.285156 197.238281 C 151.851562 197.652344 149.359375 196.859375 147.609375 195.109375 L 137.898438 185.398438 L 124.066406 199.230469 C 113.710938 209.585938 107.648438 233.550781 118.050781 243.949219 C 128.449219 254.351562 152.414062 248.289062 162.769531 237.933594 L 176.601562 224.101562 L 166.890625 214.390625 C 165.140625 212.640625 164.347656 210.148438 164.761719 207.714844 " fill-opacity="1" fill-rule="nonzero"/></g></g></g><g clip-path="url(#5e056b3d2c)"><g clip-path="url(#e5a4ee6a0d)"><g clip-path="url(#4d8cfe6569)"><path fill="#ffffff" d="M 142.75 138.886719 L 152.09375 129.542969 L 154.921875 132.371094 C 156.835938 134.285156 157.269531 139.40625 154.941406 141.734375 C 152.613281 144.0625 147.492188 143.628906 145.578125 141.710938 Z M 220.816406 197.132812 L 218.605469 196.753906 C 217.058594 196.492188 215.636719 195.753906 214.527344 194.648438 L 160.878906 140.996094 C 161.175781 137.289062 160.089844 130.863281 157.28125 128.058594 L 152.109375 122.882812 L 136.09375 138.898438 L 141.265625 144.074219 C 144.074219 146.878906 149.828125 148.632812 154.207031 147.671875 L 207.855469 201.320312 C 208.960938 202.425781 209.699219 203.851562 209.960938 205.394531 L 210.339844 207.609375 C 210.757812 210.042969 209.960938 212.53125 208.210938 214.285156 L 198.5 223.996094 L 212.332031 237.828125 C 222.6875 248.183594 246.652344 254.246094 257.054688 243.84375 C 267.453125 233.445312 261.390625 209.480469 251.035156 199.121094 L 237.203125 185.292969 L 227.492188 195.003906 C 225.742188 196.753906 223.25 197.546875 220.816406 197.132812 " fill-opacity="1" fill-rule="nonzero"/></g></g></g><g fill="#ffffff" fill-opacity="1"><g transform="translate(119.074215, 303.557968)"><g><path d="M 2.023438 -0.648438 C 2.023438 -0.242188 2.269531 0 2.671875 0 L 6.882812 0 C 7.328125 0 7.53125 -0.242188 7.53125 -0.648438 L 7.53125 -10.851562 L 12.390625 -10.851562 C 16.195312 -10.851562 18.222656 -12.917969 18.222656 -16.683594 L 18.222656 -26.5625 C 18.222656 -30.371094 16.195312 -32.394531 12.390625 -32.394531 L 2.671875 -32.394531 C 2.269531 -32.394531 2.023438 -32.152344 2.023438 -31.746094 Z M 7.53125 -16.195312 L 7.53125 -27.050781 L 11.09375 -27.050781 C 12.1875 -27.050781 12.714844 -26.480469 12.714844 -25.429688 L 12.714844 -17.816406 C 12.714844 -16.804688 12.1875 -16.195312 11.09375 -16.195312 Z M 7.53125 -16.195312 "/></g></g></g><g fill="#ffffff" fill-opacity="1"><g transform="translate(139.318366, 303.557968)"><g><path d="M 21.542969 0 C 22.027344 0 22.191406 -0.242188 22.109375 -0.6875 L 15.386719 -31.828125 C 15.304688 -32.230469 15.0625 -32.394531 14.699219 -32.394531 L 9.070312 -32.394531 C 8.707031 -32.394531 8.464844 -32.230469 8.382812 -31.828125 L 1.660156 -0.6875 C 1.539062 -0.242188 1.742188 0 2.1875 0 L 6.519531 0 C 6.882812 0 7.085938 -0.203125 7.167969 -0.566406 L 8.261719 -6.480469 L 15.46875 -6.480469 L 16.601562 -0.566406 C 16.683594 -0.203125 16.886719 0 17.25 0 Z M 14.457031 -11.175781 L 9.273438 -11.175781 L 11.863281 -25.308594 Z M 14.457031 -11.175781 "/></g></g></g><g fill="#ffffff" fill-opacity="1"><g transform="translate(163.044508, 303.557968)"><g><path d="M 7.53125 -5.34375 L 17.167969 -5.34375 C 17.613281 -5.34375 17.816406 -5.101562 17.816406 -4.695312 L 17.816406 -0.648438 C 17.816406 -0.203125 17.613281 0 17.167969 0 L 2.671875 0 C 2.269531 0 2.023438 -0.203125 2.023438 -0.648438 L 2.023438 -31.746094 C 2.023438 -32.152344 2.269531 -32.394531 2.671875 -32.394531 L 6.882812 -32.394531 C 7.328125 -32.394531 7.53125 -32.152344 7.53125 -31.746094 Z M 7.53125 -5.34375 "/></g></g></g><g fill="#ffffff" fill-opacity="1"><g transform="translate(182.883778, 303.557968)"><g><path d="M 21.542969 0 C 22.027344 0 22.191406 -0.242188 22.109375 -0.6875 L 15.386719 -31.828125 C 15.304688 -32.230469 15.0625 -32.394531 14.699219 -32.394531 L 9.070312 -32.394531 C 8.707031 -32.394531 8.464844 -32.230469 8.382812 -31.828125 L 1.660156 -0.6875 C 1.539062 -0.242188 1.742188 0 2.1875 0 L 6.519531 0 C 6.882812 0 7.085938 -0.203125 7.167969 -0.566406 L 8.261719 -6.480469 L 15.46875 -6.480469 L 16.601562 -0.566406 C 16.683594 -0.203125 16.886719 0 17.25 0 Z M 14.457031 -11.175781 L 9.273438 -11.175781 L 11.863281 -25.308594 Z M 14.457031 -11.175781 "/></g></g></g><g fill="#ffffff" fill-opacity="1"><g transform="translate(206.609919, 303.557968)"><g><path d="M 14.457031 -32.394531 C 14.011719 -32.394531 13.808594 -32.152344 13.808594 -31.746094 L 13.808594 -14.660156 L 13.566406 -14.660156 L 7.410156 -31.867188 C 7.289062 -32.230469 7.046875 -32.394531 6.679688 -32.394531 L 2.671875 -32.394531 C 2.269531 -32.394531 2.023438 -32.152344 2.023438 -31.746094 L 2.023438 -0.648438 C 2.023438 -0.242188 2.269531 0 2.671875 0 L 6.882812 0 C 7.328125 0 7.53125 -0.242188 7.53125 -0.648438 L 7.53125 -17.816406 L 7.734375 -17.816406 L 13.929688 -0.527344 C 14.050781 -0.160156 14.292969 0 14.660156 0 L 18.667969 0 C 19.070312 0 19.316406 -0.242188 19.316406 -0.648438 L 19.316406 -31.746094 C 19.316406 -32.152344 19.070312 -32.394531 18.667969 -32.394531 Z M 14.457031 -32.394531 "/></g></g></g><g fill="#ffffff" fill-opacity="1"><g transform="translate(227.947255, 303.557968)"><g><path d="M 2.023438 -27.859375 C 2.023438 -27.332031 2.308594 -27.050781 2.835938 -27.050781 L 3.847656 -27.050781 L 2.226562 -23.484375 C 2.105469 -23.203125 2.226562 -23 2.550781 -23 L 4.375 -23 C 4.617188 -23 4.738281 -23.082031 4.859375 -23.28125 L 7.046875 -26.605469 C 7.25 -26.925781 7.328125 -27.210938 7.328125 -27.617188 L 7.328125 -31.585938 C 7.328125 -32.109375 7.046875 -32.394531 6.519531 -32.394531 L 2.835938 -32.394531 C 2.308594 -32.394531 2.023438 -32.109375 2.023438 -31.585938 Z M 2.023438 -27.859375 "/></g></g></g><g fill="#ffffff" fill-opacity="1"><g transform="translate(237.300053, 303.557968)"><g><path d="M 1.863281 -32.394531 C 1.457031 -32.394531 1.214844 -32.152344 1.214844 -31.746094 L 1.214844 -27.695312 C 1.214844 -27.292969 1.457031 -27.050781 1.863281 -27.050781 L 6.558594 -27.050781 L 6.558594 -0.648438 C 6.558594 -0.203125 6.804688 0 7.207031 0 L 11.417969 0 C 11.863281 0 12.066406 -0.203125 12.066406 -0.648438 L 12.066406 -27.050781 L 16.765625 -27.050781 C 17.210938 -27.050781 17.410156 -27.292969 17.410156 -27.695312 L 17.410156 -31.746094 C 17.410156 -32.152344 17.210938 -32.394531 16.765625 -32.394531 Z M 1.863281 -32.394531 "/></g></g></g></svg>