<svg xmlns="http://www.w3.org/2000/svg" xmlns:xlink="http://www.w3.org/1999/xlink" width="500" zoomAndPan="magnify" viewBox="0 0 375 374.999991" height="500" preserveAspectRatio="xMidYMid meet" version="1.0"><defs><clipPath id="82a7f793da"><path d="M 20 44 L 302 44 L 302 326 L 20 326 Z M 20 44 " clip-rule="nonzero"/></clipPath><clipPath id="181c95e249"><path d="M 241.179688 18.933594 L 327.09375 104.847656 L 75.71875 356.222656 L -10.195312 270.308594 Z M 241.179688 18.933594 " clip-rule="nonzero"/></clipPath><clipPath id="55ed481510"><path d="M 241.179688 18.933594 L 327.09375 104.847656 L 75.71875 356.222656 L -10.195312 270.308594 Z M 241.179688 18.933594 " clip-rule="nonzero"/></clipPath><clipPath id="b358d92a57"><path d="M 241.179688 18.933594 L 327.09375 104.847656 L 75.71875 356.222656 L -10.195312 270.308594 Z M 241.179688 18.933594 " clip-rule="nonzero"/></clipPath><clipPath id="7416e892bf"><path d="M 73 44 L 355 44 L 355 326 L 73 326 Z M 73 44 " clip-rule="nonzero"/></clipPath><clipPath id="faed67fbae"><path d="M 48.039062 104.703125 L 133.953125 18.792969 L 385.332031 270.167969 L 299.417969 356.082031 Z M 48.039062 104.703125 " clip-rule="nonzero"/></clipPath><clipPath id="a736d2245b"><path d="M 48.039062 104.703125 L 133.953125 18.792969 L 385.332031 270.167969 L 299.417969 356.082031 Z M 48.039062 104.703125 " clip-rule="nonzero"/></clipPath><clipPath id="f39f88e49c"><path d="M 48.039062 104.703125 L 133.953125 18.792969 L 385.332031 270.167969 L 299.417969 356.082031 Z M 48.039062 104.703125 " clip-rule="nonzero"/></clipPath></defs><g clip-path="url(#82a7f793da)"><g clip-path="url(#181c95e249)"><g clip-path="url(#55ed481510)"><g clip-path="url(#b358d92a57)"><path fill="#000000" d="M 266.351562 58.917969 L 287.085938 79.648438 L 280.796875 85.9375 C 276.53125 90.203125 265.152344 91.183594 259.984375 86.015625 C 254.820312 80.851562 255.800781 69.46875 260.0625 65.207031 Z M 136.679688 232.574219 L 137.523438 227.65625 C 138.117188 224.222656 139.757812 221.054688 142.21875 218.59375 L 261.605469 99.207031 C 269.847656 99.851562 284.125 97.421875 290.375 91.171875 L 301.886719 79.660156 L 266.34375 44.121094 L 254.832031 55.632812 C 248.582031 61.878906 244.671875 74.675781 246.796875 84.398438 L 127.410156 203.785156 C 124.949219 206.246094 121.78125 207.886719 118.347656 208.476562 L 113.429688 209.324219 C 108.015625 210.257812 102.488281 208.5 98.597656 204.613281 L 77.050781 183.0625 L 46.273438 213.839844 C 23.226562 236.886719 9.679688 290.160156 32.761719 313.242188 C 55.84375 336.324219 109.117188 322.777344 132.164062 299.730469 L 162.941406 268.953125 L 141.390625 247.402344 C 137.503906 243.519531 135.746094 237.984375 136.679688 232.574219 " fill-opacity="1" fill-rule="nonzero"/></g></g></g></g><g clip-path="url(#7416e892bf)"><g clip-path="url(#faed67fbae)"><g clip-path="url(#a736d2245b)"><g clip-path="url(#f39f88e49c)"><path fill="#000000" d="M 88.023438 79.53125 L 108.757812 58.800781 L 115.046875 65.089844 C 119.3125 69.351562 120.292969 80.734375 115.125 85.898438 C 109.960938 91.066406 98.578125 90.085938 94.316406 85.820312 Z M 261.679688 209.207031 L 256.765625 208.359375 C 253.332031 207.769531 250.164062 206.128906 247.703125 203.664062 L 128.316406 84.28125 C 128.960938 76.039062 126.53125 61.761719 120.28125 55.511719 L 108.769531 44 L 73.226562 79.542969 L 84.738281 91.054688 C 90.988281 97.300781 103.785156 101.214844 113.507812 99.089844 L 232.894531 218.472656 C 235.355469 220.9375 236.996094 224.105469 237.585938 227.539062 L 238.433594 232.457031 C 239.363281 237.867188 237.609375 243.398438 233.71875 247.285156 L 212.171875 268.835938 L 242.949219 299.613281 C 265.996094 322.660156 319.269531 336.207031 342.351562 313.125 C 365.433594 290.042969 351.882812 236.769531 328.839844 213.722656 L 298.0625 182.945312 L 276.511719 204.492188 C 272.625 208.378906 267.09375 210.140625 261.679688 209.207031 " fill-opacity="1" fill-rule="nonzero"/></g></g></g></g></svg>